<svg xmlns="http://www.w3.org/2000/svg" width="128" height="128" viewBox="0 0 128 128" fill="none">
  <defs>
    <linearGradient id="g" x1="18" y1="20" x2="110" y2="108" gradientUnits="userSpaceOnUse">
      <stop stop-color="#34d399"/>
      <stop offset="1" stop-color="#22c55e"/>
    </linearGradient>
    <filter id="s" x="-20%" y="-20%" width="140%" height="140%">
      <feDropShadow dx="0" dy="8" stdDeviation="10" flood-color="#000" flood-opacity="0.35"/>
    </filter>
  </defs>
  <g filter="url(#s)">
    <path d="M40 56c0-16 13-28 30-28 17 0 30 12 30 28 0 22-15 34-30 34S40 78 40 56Z" fill="url(#g)"/>
    <path d="M56 50c0-8 7-14 14-14s14 6 14 14" stroke="#064e3b" stroke-width="6" stroke-linecap="round" opacity="0.35"/>
    <path d="M27 63c0-8 6-14 14-14h2v28h-2c-8 0-14-6-14-14Z" fill="#10b981"/>
    <path d="M92 49h2c8 0 14 6 14 14s-6 14-14 14h-2V49Z" fill="#10b981"/>
    <circle cx="54" cy="56" r="4" fill="#052e1b"/>
    <circle cx="80" cy="56" r="4" fill="#052e1b"/>
    <path d="M62 68c5 4 11 4 16 0" stroke="#052e1b" stroke-width="5" stroke-linecap="round"/>
    <path d="M45 88c0 6-5 10-11 10s-11-4-11-10 5-10 11-10 11 4 11 10Z" fill="#0ea5e9" opacity="0.25"/>
    <path d="M105 88c0 6-5 10-11 10s-11-4-11-10 5-10 11-10 11 4 11 10Z" fill="#a78bfa" opacity="0.22"/>
  </g>
</svg>
